<svg width="120" height="120" viewBox="0 0 120 120" fill="none" xmlns="http://www.w3.org/2000/svg">
  <!-- Sunlight/Glow -->
  <defs>
    <radialGradient id="sun_aura_icon" cx="0" cy="0" r="1" gradientUnits="userSpaceOnUse" gradientTransform="translate(60 60) rotate(90) scale(55)">
      <stop offset="0%" stop-color="#FFD700" stop-opacity="0.9"/>
      <stop offset="60%" stop-color="#FFA500" stop-opacity="0.4"/>
      <stop offset="100%" stop-color="#FFFFFF" stop-opacity="0"/>
    </radialGradient>
  </defs>
  <circle cx="60" cy="60" r="55" fill="url(#sun_aura_icon)"/>
  
  <!-- Open Book -->
  <path d="M20 70C20 62 40 58 60 58V95C40 95 20 90 20 70Z" fill="#1565C0"/>
  <path d="M100 70C100 62 80 58 60 58V95C80 95 100 90 100 70Z" fill="#1976D2"/>
  <path d="M30 68C30 63 45 60 60 60V90C45 90 30 87 30 68Z" fill="#F5F5F5" opacity="0.95"/>
  <path d="M90 68C90 63 75 60 60 60V90C75 90 90 87 90 68Z" fill="#F5F5F5" opacity="0.95"/>
  
  <!-- Graduation Cap -->
  <path d="M30 45L60 35L90 45L60 55L30 45Z" fill="#334155"/>
  <path d="M60 55V65" stroke="#334155" stroke-width="3"/>
  <path d="M85 48V65C85 67 83 68 80 68" stroke="#F59E0B" stroke-width="3" stroke-linecap="round"/>
  <circle cx="80" cy="72" r="4" fill="#F59E0B"/>
</svg>
